<?xml version="1.0" encoding="UTF-8"?><svg xmlns="http://www.w3.org/2000/svg" xmlns:xlink="http://www.w3.org/1999/xlink" fill-opacity="1" color-rendering="auto" color-interpolation="auto" text-rendering="auto" stroke="black" stroke-linecap="square" width="1263" stroke-miterlimit="10" shape-rendering="auto" stroke-opacity="1" fill="black" stroke-dasharray="none" font-weight="normal" stroke-width="1" height="1011" font-family="'Dialog'" font-style="normal" stroke-linejoin="miter" font-size="12px" stroke-dashoffset="0" image-rendering="auto">
  <!--Generated by ySVG 2.5-->
  <defs id="genericDefs"/>
  <g>
    <defs id="defs1">
      <clipPath clipPathUnits="userSpaceOnUse" id="clipPath1">
        <path d="M0 0 L1263 0 L1263 1011 L0 1011 L0 0 Z"/>
      </clipPath>
      <clipPath clipPathUnits="userSpaceOnUse" id="clipPath2">
        <path d="M363 -153 L1626 -153 L1626 858 L363 858 L363 -153 Z"/>
      </clipPath>
    </defs>
    <g fill="white" text-rendering="geometricPrecision" shape-rendering="geometricPrecision" transform="translate(-363,153)" stroke="white">
      <rect x="363" width="1263" height="1011" y="-153" clip-path="url(#clipPath2)" stroke="none"/>
    </g>
    <g fill="rgb(255,204,0)" text-rendering="geometricPrecision" shape-rendering="geometricPrecision" transform="matrix(1,0,0,1,-363,153)" stroke="rgb(255,204,0)">
      <rect x="378.5625" y="601.6667" clip-path="url(#clipPath2)" width="128" rx="4" ry="4" height="88" stroke="none"/>
    </g>
    <g text-rendering="geometricPrecision" stroke-miterlimit="1.45" shape-rendering="geometricPrecision" font-family="sans-serif" transform="matrix(1,0,0,1,-363,153)" stroke-linecap="butt">
      <text x="386.3828" xml:space="preserve" y="649.821" clip-path="url(#clipPath2)" stroke="none">relational_modeler</text>
      <rect x="378.5625" y="601.6667" clip-path="url(#clipPath2)" fill="none" width="128" rx="4" ry="4" height="88"/>
    </g>
    <g fill="rgb(255,204,0)" text-rendering="geometricPrecision" shape-rendering="geometricPrecision" transform="matrix(1,0,0,1,-363,153)" stroke="rgb(255,204,0)">
      <rect x="877.9219" y="595.6667" clip-path="url(#clipPath2)" width="102" rx="4" ry="4" height="100" stroke="none"/>
    </g>
    <g text-rendering="geometricPrecision" stroke-miterlimit="1.45" shape-rendering="geometricPrecision" font-family="sans-serif" transform="matrix(1,0,0,1,-363,153)" stroke-linecap="butt">
      <text x="884.8271" xml:space="preserve" y="649.821" clip-path="url(#clipPath2)" stroke="none">AngularProject</text>
      <rect x="877.9219" y="595.6667" clip-path="url(#clipPath2)" fill="none" width="102" rx="4" ry="4" height="100"/>
    </g>
    <g fill="rgb(255,204,0)" text-rendering="geometricPrecision" shape-rendering="geometricPrecision" transform="matrix(1,0,0,1,-363,153)" stroke="rgb(255,204,0)">
      <rect x="885.4219" y="773.6667" clip-path="url(#clipPath2)" width="87" rx="4" ry="4" height="69" stroke="none"/>
    </g>
    <g text-rendering="geometricPrecision" stroke-miterlimit="1.45" shape-rendering="geometricPrecision" font-family="sans-serif" transform="matrix(1,0,0,1,-363,153)" stroke-linecap="butt">
      <text x="889.5527" xml:space="preserve" y="812.321" clip-path="url(#clipPath2)" stroke="none">base-angular</text>
      <rect x="885.4219" y="773.6667" clip-path="url(#clipPath2)" fill="none" width="87" rx="4" ry="4" height="69"/>
    </g>
    <g fill="rgb(255,204,0)" text-rendering="geometricPrecision" shape-rendering="geometricPrecision" transform="matrix(1,0,0,1,-363,153)" stroke="rgb(255,204,0)">
      <ellipse rx="51" ry="50" clip-path="url(#clipPath2)" cx="442.5625" cy="169.5" stroke="none"/>
    </g>
    <g text-rendering="geometricPrecision" stroke-miterlimit="1.45" shape-rendering="geometricPrecision" font-family="sans-serif" transform="matrix(1,0,0,1,-363,153)" stroke-linecap="butt">
      <text x="399.6689" xml:space="preserve" y="173.6543" clip-path="url(#clipPath2)" stroke="none">Food/Nutrition</text>
      <ellipse rx="51" fill="none" ry="50" clip-path="url(#clipPath2)" cx="442.5625" cy="169.5"/>
    </g>
    <g fill="rgb(255,204,0)" text-rendering="geometricPrecision" shape-rendering="geometricPrecision" transform="matrix(1,0,0,1,-363,153)" stroke="rgb(255,204,0)">
      <ellipse rx="51" ry="50" clip-path="url(#clipPath2)" cx="1315.1667" cy="39.5" stroke="none"/>
    </g>
    <g text-rendering="geometricPrecision" stroke-miterlimit="1.45" shape-rendering="geometricPrecision" font-family="sans-serif" transform="matrix(1,0,0,1,-363,153)" stroke-linecap="butt">
      <text x="1295.3004" xml:space="preserve" y="43.6543" clip-path="url(#clipPath2)" stroke="none">dist.lol</text>
      <ellipse rx="51" fill="none" ry="50" clip-path="url(#clipPath2)" cx="1315.1667" cy="39.5"/>
    </g>
    <g fill="rgb(255,204,0)" text-rendering="geometricPrecision" shape-rendering="geometricPrecision" transform="matrix(1,0,0,1,-363,153)" stroke="rgb(255,204,0)">
      <ellipse rx="51" ry="50" clip-path="url(#clipPath2)" cx="1086.9844" cy="169.5" stroke="none"/>
    </g>
    <g text-rendering="geometricPrecision" stroke-miterlimit="1.45" shape-rendering="geometricPrecision" font-family="sans-serif" transform="matrix(1,0,0,1,-363,153)" stroke-linecap="butt">
      <text x="1065.5566" xml:space="preserve" y="173.6543" clip-path="url(#clipPath2)" stroke="none">wiyr.us</text>
      <ellipse rx="51" fill="none" ry="50" clip-path="url(#clipPath2)" cx="1086.9844" cy="169.5"/>
    </g>
    <g fill="rgb(255,204,0)" text-rendering="geometricPrecision" shape-rendering="geometricPrecision" transform="matrix(1,0,0,1,-363,153)" stroke="rgb(255,204,0)">
      <ellipse rx="51" ry="50" clip-path="url(#clipPath2)" cx="928.9219" cy="169.5" stroke="none"/>
    </g>
    <g text-rendering="geometricPrecision" stroke-miterlimit="1.45" shape-rendering="geometricPrecision" font-family="sans-serif" transform="matrix(1,0,0,1,-363,153)" stroke-linecap="butt">
      <text x="891.082" xml:space="preserve" y="166.6699" clip-path="url(#clipPath2)" stroke="none">instantchat /</text>
      <text x="899.0039" xml:space="preserve" y="180.6387" clip-path="url(#clipPath2)" stroke="none">instantfile</text>
      <ellipse rx="51" fill="none" ry="50" clip-path="url(#clipPath2)" cx="928.9219" cy="169.5"/>
    </g>
    <g fill="rgb(255,204,0)" text-rendering="geometricPrecision" shape-rendering="geometricPrecision" transform="matrix(1,0,0,1,-363,153)" stroke="rgb(255,204,0)">
      <ellipse rx="43.5" ry="44" clip-path="url(#clipPath2)" cx="1068.4219" cy="-93.3216" stroke="none"/>
    </g>
    <g text-rendering="geometricPrecision" stroke-miterlimit="1.45" shape-rendering="geometricPrecision" font-family="sans-serif" transform="matrix(1,0,0,1,-363,153)" stroke-linecap="butt">
      <text x="1049.0479" xml:space="preserve" y="-89.1673" clip-path="url(#clipPath2)" stroke="none">jsxbox</text>
      <ellipse rx="43.5" fill="none" ry="44" clip-path="url(#clipPath2)" cx="1068.4219" cy="-93.3216"/>
    </g>
    <g fill="rgb(255,204,0)" text-rendering="geometricPrecision" shape-rendering="geometricPrecision" transform="matrix(1,0,0,1,-363,153)" stroke="rgb(255,204,0)">
      <ellipse rx="36" ry="38.5" clip-path="url(#clipPath2)" cx="928.9219" cy="-93.3216" stroke="none"/>
    </g>
    <g text-rendering="geometricPrecision" stroke-miterlimit="1.45" shape-rendering="geometricPrecision" font-family="sans-serif" transform="matrix(1,0,0,1,-363,153)" stroke-linecap="butt">
      <text x="903.0088" xml:space="preserve" y="-89.1673" clip-path="url(#clipPath2)" stroke="none">facerace</text>
      <ellipse rx="36" fill="none" ry="38.5" clip-path="url(#clipPath2)" cx="928.9219" cy="-93.3216"/>
    </g>
    <g fill="rgb(255,204,0)" text-rendering="geometricPrecision" shape-rendering="geometricPrecision" transform="matrix(1,0,0,1,-363,153)" stroke="rgb(255,204,0)">
      <ellipse rx="51" ry="50" clip-path="url(#clipPath2)" cx="677.3594" cy="-27.5716" stroke="none"/>
    </g>
    <g text-rendering="geometricPrecision" stroke-miterlimit="1.45" shape-rendering="geometricPrecision" font-family="sans-serif" transform="matrix(1,0,0,1,-363,153)" stroke-linecap="butt">
      <text x="644.9365" xml:space="preserve" y="-23.4173" clip-path="url(#clipPath2)" stroke="none">trade.work</text>
      <ellipse rx="51" fill="none" ry="50" clip-path="url(#clipPath2)" cx="677.3594" cy="-27.5716"/>
    </g>
    <g fill="rgb(255,204,0)" text-rendering="geometricPrecision" shape-rendering="geometricPrecision" transform="matrix(1,0,0,1,-363,153)" stroke="rgb(255,204,0)">
      <ellipse rx="51" ry="50" clip-path="url(#clipPath2)" cx="1245.0469" cy="169.5" stroke="none"/>
    </g>
    <g text-rendering="geometricPrecision" stroke-miterlimit="1.45" shape-rendering="geometricPrecision" font-family="sans-serif" transform="matrix(1,0,0,1,-363,153)" stroke-linecap="butt">
      <text x="1216.1982" xml:space="preserve" y="173.6543" clip-path="url(#clipPath2)" stroke="none">estimator</text>
      <ellipse rx="51" fill="none" ry="50" clip-path="url(#clipPath2)" cx="1245.0469" cy="169.5"/>
    </g>
    <g fill="rgb(255,204,0)" text-rendering="geometricPrecision" shape-rendering="geometricPrecision" transform="matrix(1,0,0,1,-363,153)" stroke="rgb(255,204,0)">
      <ellipse rx="64" ry="61.875" clip-path="url(#clipPath2)" cx="677.3594" cy="169.5" stroke="none"/>
    </g>
    <g text-rendering="geometricPrecision" stroke-miterlimit="1.45" shape-rendering="geometricPrecision" font-family="sans-serif" transform="matrix(1,0,0,1,-363,153)" stroke-linecap="butt">
      <text x="625.4922" xml:space="preserve" y="173.6543" clip-path="url(#clipPath2)" stroke="none">cloud-launcher.io</text>
      <ellipse rx="64" fill="none" ry="61.875" clip-path="url(#clipPath2)" cx="677.3594" cy="169.5"/>
    </g>
    <g fill="rgb(255,204,0)" text-rendering="geometricPrecision" shape-rendering="geometricPrecision" transform="matrix(1,0,0,1,-363,153)" stroke="rgb(255,204,0)">
      <ellipse rx="43.5" ry="44" clip-path="url(#clipPath2)" cx="1566.7865" cy="169.5" stroke="none"/>
    </g>
    <g text-rendering="geometricPrecision" stroke-miterlimit="1.45" shape-rendering="geometricPrecision" font-family="sans-serif" transform="matrix(1,0,0,1,-363,153)" stroke-linecap="butt">
      <text x="1541.6029" xml:space="preserve" y="173.6543" clip-path="url(#clipPath2)" stroke="none">exercise</text>
      <ellipse rx="43.5" fill="none" ry="44" clip-path="url(#clipPath2)" cx="1566.7865" cy="169.5"/>
    </g>
    <g fill="rgb(255,204,0)" text-rendering="geometricPrecision" shape-rendering="geometricPrecision" transform="matrix(1,0,0,1,-363,153)" stroke="rgb(255,204,0)">
      <ellipse rx="43.5" ry="44" clip-path="url(#clipPath2)" cx="789.4219" cy="-93.3216" stroke="none"/>
    </g>
    <g text-rendering="geometricPrecision" stroke-miterlimit="1.45" shape-rendering="geometricPrecision" font-family="sans-serif" transform="matrix(1,0,0,1,-363,153)" stroke-linecap="butt">
      <text x="763.2012" xml:space="preserve" y="-89.1673" clip-path="url(#clipPath2)" stroke="none">research</text>
      <ellipse rx="43.5" fill="none" ry="44" clip-path="url(#clipPath2)" cx="789.4219" cy="-93.3216"/>
    </g>
    <g fill="rgb(255,204,0)" text-rendering="geometricPrecision" shape-rendering="geometricPrecision" transform="matrix(1,0,0,1,-363,153)" stroke="rgb(255,204,0)">
      <ellipse rx="43.5" ry="44" clip-path="url(#clipPath2)" cx="1409.6667" cy="169.5" stroke="none"/>
    </g>
    <g text-rendering="geometricPrecision" stroke-miterlimit="1.45" shape-rendering="geometricPrecision" font-family="sans-serif" transform="matrix(1,0,0,1,-363,153)" stroke-linecap="butt">
      <text x="1385.2828" xml:space="preserve" y="173.6543" clip-path="url(#clipPath2)" stroke="none">timeline</text>
      <ellipse rx="43.5" fill="none" ry="44" clip-path="url(#clipPath2)" cx="1409.6667" cy="169.5"/>
      <path fill="none" d="M928.9219 695.6942 L928.9219 765.6506" clip-path="url(#clipPath2)"/>
      <path d="M928.9219 773.6506 L933.9219 761.6506 L928.9219 764.6506 L923.9219 761.6506 Z" clip-path="url(#clipPath2)" stroke="none"/>
      <path fill="none" d="M442.5625 219.5 L442.5625 593.6818" clip-path="url(#clipPath2)"/>
      <path d="M442.5625 601.6818 L447.5625 589.6818 L442.5625 592.6818 L437.5625 589.6818 Z" clip-path="url(#clipPath2)" stroke="none"/>
      <path fill="none" d="M478.6498 204.831 L873.3798 591.2886" clip-path="url(#clipPath2)"/>
      <path d="M879.0963 596.8853 L874.0195 584.9175 L872.6653 590.589 L867.0237 592.063 Z" clip-path="url(#clipPath2)" stroke="none"/>
      <path fill="none" d="M1071.2018 217.0456 L948.0375 588.0804" clip-path="url(#clipPath2)"/>
      <path d="M945.5172 595.6731 L954.043 585.8594 L948.3525 587.1314 L944.5522 582.709 Z" clip-path="url(#clipPath2)" stroke="none"/>
      <path fill="none" stroke-dasharray="6,2" d="M1035.9844 169.5 L987.9219 169.5" clip-path="url(#clipPath2)"/>
      <path stroke-dasharray="6,2" d="M979.9219 169.5 L991.9219 174.5 L988.9219 169.5 L991.9219 164.5 Z" clip-path="url(#clipPath2)" stroke="none"/>
      <path fill="none" d="M928.9219 219.5 L928.9219 587.6472" clip-path="url(#clipPath2)"/>
      <path d="M928.9219 595.6472 L933.9219 583.6472 L928.9219 586.6472 L923.9219 583.6472 Z" clip-path="url(#clipPath2)" stroke="none"/>
      <path fill="none" stroke-dasharray="6,2" d="M1047.8456 -54.5553 L956.2147 118.0796" clip-path="url(#clipPath2)"/>
      <path stroke-dasharray="6,2" d="M952.4641 125.1459 L962.5065 116.8906 L956.6835 117.1963 L953.6736 112.2023 Z" clip-path="url(#clipPath2)" stroke="none"/>
      <path fill="none" stroke-dasharray="6,2" d="M964.9219 -93.3216 L1016.9219 -93.3216" clip-path="url(#clipPath2)"/>
      <path stroke-dasharray="6,2" d="M1024.9219 -93.3216 L1012.9219 -98.3216 L1015.9219 -93.3216 L1012.9219 -88.3216 Z" clip-path="url(#clipPath2)" stroke="none"/>
      <path fill="none" stroke-dasharray="6,2" d="M928.9219 -54.8216 L928.9219 111.5" clip-path="url(#clipPath2)"/>
      <path stroke-dasharray="6,2" d="M928.9219 119.5 L933.9219 107.5 L928.9219 110.5 L923.9219 107.5 Z" clip-path="url(#clipPath2)" stroke="none"/>
      <path fill="none" stroke-dasharray="6,2" d="M481.3043 136.983 L632.4899 10.0885" clip-path="url(#clipPath2)"/>
      <path stroke-dasharray="6,2" d="M638.6176 4.9454 L626.2117 8.8303 L631.724 10.7314 L632.6406 16.4899 Z" clip-path="url(#clipPath2)" stroke="none"/>
      <path fill="none" stroke-dasharray="6,2" d="M717.202 3.6407 L882.7816 133.3542" clip-path="url(#clipPath2)"/>
      <path stroke-dasharray="6,2" d="M889.0793 138.2877 L882.7162 126.9514 L881.9944 132.7375 L876.5494 134.8234 Z" clip-path="url(#clipPath2)" stroke="none"/>
      <path fill="none" d="M1217.2261 211.4054 L966.5516 588.9865" clip-path="url(#clipPath2)"/>
      <path d="M962.1268 595.6514 L972.9296 588.4195 L967.1047 588.1533 L964.5984 582.8885 Z" clip-path="url(#clipPath2)" stroke="none"/>
      <path fill="none" stroke-dasharray="6,2" d="M877.9219 169.5 L749.3594 169.5" clip-path="url(#clipPath2)"/>
      <path stroke-dasharray="6,2" d="M741.3594 169.5 L753.3594 174.5 L750.3594 169.5 L753.3594 164.5 Z" clip-path="url(#clipPath2)" stroke="none"/>
      <path fill="none" stroke-dasharray="6,2" d="M677.3594 22.4284 L677.3594 99.625" clip-path="url(#clipPath2)"/>
      <path stroke-dasharray="6,2" d="M677.3594 107.625 L682.3594 95.625 L677.3594 98.625 L672.3594 95.625 Z" clip-path="url(#clipPath2)" stroke="none"/>
      <path fill="none" d="M706.4709 224.6033 L898.777 588.6073" clip-path="url(#clipPath2)"/>
      <path d="M902.514 595.6808 L901.3295 582.7349 L898.3099 587.7231 L892.4875 587.4062 Z" clip-path="url(#clipPath2)" stroke="none"/>
      <path fill="none" d="M1531.7863 195.6277 L986.3686 602.7827" clip-path="url(#clipPath2)"/>
      <path d="M979.9578 607.5683 L992.5649 604.3965 L987.1699 602.1844 L986.5829 596.3831 Z" clip-path="url(#clipPath2)" stroke="none"/>
      <path fill="none" stroke-dasharray="6,2" d="M809.9982 -54.5553 L901.629 118.0796" clip-path="url(#clipPath2)"/>
      <path stroke-dasharray="6,2" d="M905.3797 125.1459 L904.1702 112.2023 L901.1602 117.1963 L895.3373 116.8906 Z" clip-path="url(#clipPath2)" stroke="none"/>
      <path fill="none" d="M1378.5863 200.2844 L984.1446 590.9698" clip-path="url(#clipPath2)"/>
      <path d="M978.4608 596.5995 L990.5051 591.7074 L984.8551 590.2661 L983.468 584.6025 Z" clip-path="url(#clipPath2)" stroke="none"/>
      <path fill="none" stroke-dasharray="6,2" d="M1366.1666 169.5 L1304.0469 169.5" clip-path="url(#clipPath2)"/>
      <path stroke-dasharray="6,2" d="M1296.0469 169.5 L1308.0469 174.5 L1305.0469 169.5 L1308.0469 164.5 Z" clip-path="url(#clipPath2)" stroke="none"/>
      <path fill="none" stroke-dasharray="6,2" d="M1453.1666 169.5 L1515.2865 169.5" clip-path="url(#clipPath2)"/>
      <path stroke-dasharray="6,2" d="M1523.2865 169.5 L1511.2865 164.5 L1514.2865 169.5 L1511.2865 174.5 Z" clip-path="url(#clipPath2)" stroke="none"/>
    </g>
  </g>
</svg>
